<mxfile host="drawio-plugin" modified="2024-04-23T13:08:54.175Z" agent="5.0 (Windows NT 10.0; Win64; x64) AppleWebKit/537.36 (KHTML, like Gecko) Chrome/111.0.0.0 Safari/537.36" etag="ic0dK9I9Hd0pi0JsJw9C" version="20.5.3" type="embed"><diagram name="第 1 页" id="1WRkIkmlVNOjLT17XS-x"><mxGraphModel dx="891" dy="735" grid="1" gridSize="10" guides="1" tooltips="1" connect="1" arrows="1" fold="1" page="1" pageScale="1" pageWidth="827" pageHeight="1169" math="0" shadow="0"><root><mxCell id="0"/><mxCell id="1" parent="0"/><mxCell id="izmXMdnwvWPawQ0ss3po-161" value="" style="rounded=0;whiteSpace=wrap;html=1;" parent="1" vertex="1"><mxGeometry x="260" y="1570" width="580" height="310" as="geometry"/></mxCell><mxCell id="izmXMdnwvWPawQ0ss3po-1" value="&lt;div style=&quot;box-sizing:border-box;width:100%;background:#e4e4e4;padding:2px;&quot;&gt;&lt;font color=&quot;#000000&quot;&gt;VIPMembers（VIP会员信息表）&lt;/font&gt;&lt;/div&gt;&lt;table style=&quot;width:100%;font-size:1em;&quot; cellpadding=&quot;2&quot; cellspacing=&quot;0&quot;&gt;&lt;tbody&gt;&lt;tr&gt;&lt;td&gt;PK&lt;/td&gt;&lt;td&gt;&lt;span style=&quot;color: rgb(51, 51, 51); font-family: &amp;quot;Open Sans&amp;quot;, &amp;quot;Clear Sans&amp;quot;, &amp;quot;Helvetica Neue&amp;quot;, Helvetica, Arial, &amp;quot;Segoe UI Emoji&amp;quot;, sans-serif; white-space-collapse: preserve; background-color: rgb(255, 255, 255);&quot;&gt;&lt;font style=&quot;font-size: 12px;&quot;&gt;VIPMemberID&lt;/font&gt;&lt;/span&gt;&lt;br&gt;&lt;/td&gt;&lt;/tr&gt;&lt;tr&gt;&lt;td&gt;FK1&lt;/td&gt;&lt;td&gt;UserID&lt;/td&gt;&lt;/tr&gt;&lt;tr&gt;&lt;td&gt;FK2&lt;br&gt;&lt;br&gt;&lt;/td&gt;&lt;td&gt;VIPStartDate&lt;br&gt;VIPEndDate&lt;br&gt;VIPLevel&lt;br&gt;Status&lt;br&gt;CreatedAt（创建时间）&lt;br&gt;UpdatedAt（更新时间）&lt;/td&gt;&lt;/tr&gt;&lt;/tbody&gt;&lt;/table&gt;" style="verticalAlign=top;align=left;overflow=fill;html=1;whiteSpace=wrap;" parent="1" vertex="1"><mxGeometry x="60" y="20" width="180" height="150" as="geometry"/></mxCell><mxCell id="izmXMdnwvWPawQ0ss3po-2" value="&lt;div style=&quot;box-sizing:border-box;width:100%;background:#e4e4e4;padding:2px;&quot;&gt;&lt;font color=&quot;#000000&quot;&gt;VIPLevels（VIP等级表）（拟弃用）&lt;/font&gt;&lt;/div&gt;&lt;table style=&quot;width:100%;font-size:1em;&quot; cellpadding=&quot;2&quot; cellspacing=&quot;0&quot;&gt;&lt;tbody&gt;&lt;tr&gt;&lt;td&gt;PK&lt;/td&gt;&lt;td&gt;&lt;span style=&quot;color: rgb(51, 51, 51); font-family: &amp;quot;Open Sans&amp;quot;, &amp;quot;Clear Sans&amp;quot;, &amp;quot;Helvetica Neue&amp;quot;, Helvetica, Arial, &amp;quot;Segoe UI Emoji&amp;quot;, sans-serif; white-space-collapse: preserve; background-color: rgb(255, 255, 255);&quot;&gt;&lt;font style=&quot;font-size: 12px;&quot;&gt;LevelID&lt;/font&gt;&lt;/span&gt;&lt;br&gt;&lt;/td&gt;&lt;/tr&gt;&lt;tr&gt;&lt;td&gt;&lt;br&gt;&lt;/td&gt;&lt;td&gt;LevelName&lt;/td&gt;&lt;/tr&gt;&lt;tr&gt;&lt;td&gt;&lt;/td&gt;&lt;td&gt;LevelDescription&lt;br&gt;RequiredPoints&lt;/td&gt;&lt;/tr&gt;&lt;/tbody&gt;&lt;/table&gt;" style="verticalAlign=top;align=left;overflow=fill;html=1;whiteSpace=wrap;" parent="1" vertex="1"><mxGeometry x="260" y="20" width="200" height="90" as="geometry"/></mxCell><mxCell id="izmXMdnwvWPawQ0ss3po-3" value="&lt;div style=&quot;box-sizing:border-box;width:100%;background:#e4e4e4;padding:2px;&quot;&gt;&lt;font color=&quot;#000000&quot;&gt;VIPPrivileges（VIP特权表）（拟弃用）&lt;/font&gt;&lt;/div&gt;&lt;table style=&quot;width:100%;font-size:1em;&quot; cellpadding=&quot;2&quot; cellspacing=&quot;0&quot;&gt;&lt;tbody&gt;&lt;tr&gt;&lt;td&gt;PK&lt;/td&gt;&lt;td&gt;&lt;span style=&quot;color: rgb(51, 51, 51); font-family: &amp;quot;Open Sans&amp;quot;, &amp;quot;Clear Sans&amp;quot;, &amp;quot;Helvetica Neue&amp;quot;, Helvetica, Arial, &amp;quot;Segoe UI Emoji&amp;quot;, sans-serif; white-space-collapse: preserve; background-color: rgb(255, 255, 255);&quot;&gt;&lt;font style=&quot;font-size: 12px;&quot;&gt;PrivilegeID&lt;/font&gt;&lt;/span&gt;&lt;br&gt;&lt;/td&gt;&lt;/tr&gt;&lt;tr&gt;&lt;td&gt;&lt;br&gt;&lt;/td&gt;&lt;td&gt;&lt;span style=&quot;color: rgb(51, 51, 51); font-family: &amp;quot;Open Sans&amp;quot;, &amp;quot;Clear Sans&amp;quot;, &amp;quot;Helvetica Neue&amp;quot;, Helvetica, Arial, &amp;quot;Segoe UI Emoji&amp;quot;, sans-serif; white-space-collapse: preserve; background-color: rgb(248, 248, 248);&quot;&gt;&lt;font style=&quot;font-size: 12px;&quot;&gt;PrivilegeName&lt;/font&gt;&lt;/span&gt;&lt;br&gt;&lt;/td&gt;&lt;/tr&gt;&lt;tr&gt;&lt;td&gt;&lt;/td&gt;&lt;td&gt;PrivilegeDescription&lt;br&gt;RequiredLevelID&lt;/td&gt;&lt;/tr&gt;&lt;/tbody&gt;&lt;/table&gt;" style="verticalAlign=top;align=left;overflow=fill;html=1;whiteSpace=wrap;" parent="1" vertex="1"><mxGeometry x="40" y="180" width="220" height="90" as="geometry"/></mxCell><mxCell id="izmXMdnwvWPawQ0ss3po-4" value="&lt;div style=&quot;box-sizing:border-box;width:100%;background:#e4e4e4;padding:2px;&quot;&gt;&lt;font color=&quot;#000000&quot;&gt;VIPOrders&lt;/font&gt;&lt;/div&gt;&lt;table style=&quot;width:100%;font-size:1em;&quot; cellpadding=&quot;2&quot; cellspacing=&quot;0&quot;&gt;&lt;tbody&gt;&lt;tr&gt;&lt;td&gt;PK&lt;/td&gt;&lt;td&gt;OrderID&lt;/td&gt;&lt;/tr&gt;&lt;tr&gt;&lt;td&gt;FK1&lt;/td&gt;&lt;td&gt;UserID&lt;/td&gt;&lt;/tr&gt;&lt;tr&gt;&lt;td&gt;&lt;/td&gt;&lt;td&gt;TotalAmount&lt;br&gt;DiscountAmount&lt;br&gt;PointReturn&lt;br&gt;OrderTime&lt;/td&gt;&lt;/tr&gt;&lt;/tbody&gt;&lt;/table&gt;" style="verticalAlign=top;align=left;overflow=fill;html=1;whiteSpace=wrap;" parent="1" vertex="1"><mxGeometry x="280" y="140" width="180" height="120" as="geometry"/></mxCell><mxCell id="izmXMdnwvWPawQ0ss3po-5" value="" style="line;strokeWidth=1;fillColor=none;align=left;verticalAlign=middle;spacingTop=-1;spacingLeft=3;spacingRight=3;rotatable=0;labelPosition=right;points=[];portConstraint=eastwest;strokeColor=inherit;" parent="1" vertex="1"><mxGeometry y="320" width="820" height="8" as="geometry"/></mxCell><mxCell id="izmXMdnwvWPawQ0ss3po-6" value="1. 管理员查看VIP用户信息" style="rounded=0;whiteSpace=wrap;html=1;" parent="1" vertex="1"><mxGeometry x="20" y="340" width="150" height="20" as="geometry"/></mxCell><mxCell id="izmXMdnwvWPawQ0ss3po-23" value="" style="edgeStyle=orthogonalEdgeStyle;rounded=0;orthogonalLoop=1;jettySize=auto;html=1;" parent="1" source="izmXMdnwvWPawQ0ss3po-7" target="izmXMdnwvWPawQ0ss3po-22" edge="1"><mxGeometry relative="1" as="geometry"/></mxCell><mxCell id="izmXMdnwvWPawQ0ss3po-7" value="Start" style="rounded=0;whiteSpace=wrap;html=1;" parent="1" vertex="1"><mxGeometry x="85" y="550" width="40" height="20" as="geometry"/></mxCell><mxCell id="izmXMdnwvWPawQ0ss3po-8" style="edgeStyle=orthogonalEdgeStyle;rounded=0;orthogonalLoop=1;jettySize=auto;html=1;exitX=1;exitY=0.5;exitDx=0;exitDy=0;entryX=0;entryY=0.5;entryDx=0;entryDy=0;" parent="1" source="izmXMdnwvWPawQ0ss3po-9" target="izmXMdnwvWPawQ0ss3po-11" edge="1"><mxGeometry relative="1" as="geometry"/></mxCell><mxCell id="izmXMdnwvWPawQ0ss3po-9" value="Start" style="rounded=0;whiteSpace=wrap;html=1;" parent="1" vertex="1"><mxGeometry x="80" y="405" width="50" height="20" as="geometry"/></mxCell><mxCell id="izmXMdnwvWPawQ0ss3po-10" style="edgeStyle=orthogonalEdgeStyle;rounded=0;orthogonalLoop=1;jettySize=auto;html=1;exitX=1;exitY=0.5;exitDx=0;exitDy=0;entryX=0;entryY=0.5;entryDx=0;entryDy=0;" parent="1" source="izmXMdnwvWPawQ0ss3po-11" target="izmXMdnwvWPawQ0ss3po-12" edge="1"><mxGeometry relative="1" as="geometry"/></mxCell><mxCell id="izmXMdnwvWPawQ0ss3po-14" value="" style="edgeStyle=orthogonalEdgeStyle;rounded=0;orthogonalLoop=1;jettySize=auto;html=1;entryX=0.007;entryY=0.571;entryDx=0;entryDy=0;entryPerimeter=0;exitX=0.5;exitY=1;exitDx=0;exitDy=0;" parent="1" source="izmXMdnwvWPawQ0ss3po-12" target="izmXMdnwvWPawQ0ss3po-13" edge="1"><mxGeometry relative="1" as="geometry"/></mxCell><mxCell id="izmXMdnwvWPawQ0ss3po-11" value="前台界面访问数据库，获取全部VIP信息的列表" style="rounded=0;whiteSpace=wrap;html=1;" parent="1" vertex="1"><mxGeometry x="150" y="390" width="110" height="50" as="geometry"/></mxCell><mxCell id="izmXMdnwvWPawQ0ss3po-15" value="" style="edgeStyle=orthogonalEdgeStyle;rounded=0;orthogonalLoop=1;jettySize=auto;html=1;entryX=0;entryY=0.5;entryDx=0;entryDy=0;" parent="1" source="izmXMdnwvWPawQ0ss3po-12" target="izmXMdnwvWPawQ0ss3po-17" edge="1"><mxGeometry relative="1" as="geometry"><mxPoint x="500" y="410" as="targetPoint"/></mxGeometry></mxCell><mxCell id="izmXMdnwvWPawQ0ss3po-20" value="" style="edgeStyle=orthogonalEdgeStyle;rounded=0;orthogonalLoop=1;jettySize=auto;html=1;entryX=0.529;entryY=0.975;entryDx=0;entryDy=0;entryPerimeter=0;" parent="1" source="izmXMdnwvWPawQ0ss3po-12" target="izmXMdnwvWPawQ0ss3po-21" edge="1"><mxGeometry relative="1" as="geometry"><mxPoint x="340" y="370" as="targetPoint"/></mxGeometry></mxCell><mxCell id="izmXMdnwvWPawQ0ss3po-12" value="按照表格的形式呈现广告" style="whiteSpace=wrap;html=1;" parent="1" vertex="1"><mxGeometry x="280" y="400" width="80" height="30" as="geometry"/></mxCell><mxCell id="izmXMdnwvWPawQ0ss3po-18" style="edgeStyle=orthogonalEdgeStyle;rounded=0;orthogonalLoop=1;jettySize=auto;html=1;exitX=1;exitY=0.5;exitDx=0;exitDy=0;entryX=0.5;entryY=1;entryDx=0;entryDy=0;" parent="1" source="izmXMdnwvWPawQ0ss3po-13" target="izmXMdnwvWPawQ0ss3po-17" edge="1"><mxGeometry relative="1" as="geometry"/></mxCell><mxCell id="izmXMdnwvWPawQ0ss3po-13" value="可以考虑在列表中只呈现部分信息，在点击后查看全部信息" style="whiteSpace=wrap;html=1;rounded=0;" parent="1" vertex="1"><mxGeometry x="355" y="440" width="110" height="40" as="geometry"/></mxCell><mxCell id="izmXMdnwvWPawQ0ss3po-17" value="End" style="whiteSpace=wrap;html=1;" parent="1" vertex="1"><mxGeometry x="470" y="405" width="30" height="20" as="geometry"/></mxCell><mxCell id="izmXMdnwvWPawQ0ss3po-19" value="2.管理员查找用户VIP信息" style="whiteSpace=wrap;html=1;" parent="1" vertex="1"><mxGeometry x="20" y="490" width="150" height="20" as="geometry"/></mxCell><mxCell id="izmXMdnwvWPawQ0ss3po-21" value="表格包含：用户名，VIP等级，VIP状态，VIP起止日期" style="whiteSpace=wrap;html=1;" parent="1" vertex="1"><mxGeometry x="220" y="340" width="230" height="30" as="geometry"/></mxCell><mxCell id="izmXMdnwvWPawQ0ss3po-25" value="" style="edgeStyle=orthogonalEdgeStyle;rounded=0;orthogonalLoop=1;jettySize=auto;html=1;" parent="1" source="izmXMdnwvWPawQ0ss3po-22" target="izmXMdnwvWPawQ0ss3po-24" edge="1"><mxGeometry relative="1" as="geometry"/></mxCell><mxCell id="izmXMdnwvWPawQ0ss3po-22" value="管理员在搜索框内搜索，输入用户名进行查找" style="whiteSpace=wrap;html=1;rounded=0;" parent="1" vertex="1"><mxGeometry x="150" y="535" width="120" height="50" as="geometry"/></mxCell><mxCell id="izmXMdnwvWPawQ0ss3po-27" value="" style="edgeStyle=orthogonalEdgeStyle;rounded=0;orthogonalLoop=1;jettySize=auto;html=1;" parent="1" source="izmXMdnwvWPawQ0ss3po-24" target="izmXMdnwvWPawQ0ss3po-26" edge="1"><mxGeometry relative="1" as="geometry"/></mxCell><mxCell id="izmXMdnwvWPawQ0ss3po-24" value="前台向后台发送信息" style="whiteSpace=wrap;html=1;rounded=0;" parent="1" vertex="1"><mxGeometry x="294" y="550" width="120" height="20" as="geometry"/></mxCell><mxCell id="izmXMdnwvWPawQ0ss3po-29" value="" style="edgeStyle=orthogonalEdgeStyle;rounded=0;orthogonalLoop=1;jettySize=auto;html=1;entryX=0;entryY=0.5;entryDx=0;entryDy=0;" parent="1" source="izmXMdnwvWPawQ0ss3po-26" target="izmXMdnwvWPawQ0ss3po-28" edge="1"><mxGeometry relative="1" as="geometry"/></mxCell><mxCell id="izmXMdnwvWPawQ0ss3po-33" value="找到" style="edgeLabel;html=1;align=center;verticalAlign=middle;resizable=0;points=[];" parent="izmXMdnwvWPawQ0ss3po-29" vertex="1" connectable="0"><mxGeometry x="-0.1793" relative="1" as="geometry"><mxPoint as="offset"/></mxGeometry></mxCell><mxCell id="izmXMdnwvWPawQ0ss3po-35" value="" style="edgeStyle=orthogonalEdgeStyle;rounded=0;orthogonalLoop=1;jettySize=auto;html=1;entryX=0;entryY=0.5;entryDx=0;entryDy=0;exitX=0.5;exitY=1;exitDx=0;exitDy=0;" parent="1" source="izmXMdnwvWPawQ0ss3po-26" target="izmXMdnwvWPawQ0ss3po-34" edge="1"><mxGeometry relative="1" as="geometry"/></mxCell><mxCell id="izmXMdnwvWPawQ0ss3po-36" value="未找到" style="edgeLabel;html=1;align=center;verticalAlign=middle;resizable=0;points=[];" parent="izmXMdnwvWPawQ0ss3po-35" vertex="1" connectable="0"><mxGeometry x="-0.2486" relative="1" as="geometry"><mxPoint as="offset"/></mxGeometry></mxCell><mxCell id="izmXMdnwvWPawQ0ss3po-26" value="后台根据提交的用户名查找该用户的VIP信息" style="whiteSpace=wrap;html=1;rounded=0;" parent="1" vertex="1"><mxGeometry x="430" y="535" width="90" height="50" as="geometry"/></mxCell><mxCell id="izmXMdnwvWPawQ0ss3po-32" value="" style="edgeStyle=orthogonalEdgeStyle;rounded=0;orthogonalLoop=1;jettySize=auto;html=1;" parent="1" source="izmXMdnwvWPawQ0ss3po-28" target="izmXMdnwvWPawQ0ss3po-31" edge="1"><mxGeometry relative="1" as="geometry"/></mxCell><mxCell id="izmXMdnwvWPawQ0ss3po-28" value="后台发送相应VIP信息" style="whiteSpace=wrap;html=1;rounded=0;" parent="1" vertex="1"><mxGeometry x="570" y="545" width="80" height="30" as="geometry"/></mxCell><mxCell id="izmXMdnwvWPawQ0ss3po-39" value="" style="edgeStyle=orthogonalEdgeStyle;rounded=0;orthogonalLoop=1;jettySize=auto;html=1;" parent="1" source="izmXMdnwvWPawQ0ss3po-31" target="izmXMdnwvWPawQ0ss3po-38" edge="1"><mxGeometry relative="1" as="geometry"/></mxCell><mxCell id="izmXMdnwvWPawQ0ss3po-31" value="前台根据是否找到、VIP状态显示信息" style="whiteSpace=wrap;html=1;rounded=0;" parent="1" vertex="1"><mxGeometry x="680" y="535" width="90" height="50" as="geometry"/></mxCell><mxCell id="izmXMdnwvWPawQ0ss3po-37" style="edgeStyle=orthogonalEdgeStyle;rounded=0;orthogonalLoop=1;jettySize=auto;html=1;entryX=0.5;entryY=1;entryDx=0;entryDy=0;" parent="1" source="izmXMdnwvWPawQ0ss3po-34" target="izmXMdnwvWPawQ0ss3po-31" edge="1"><mxGeometry relative="1" as="geometry"/></mxCell><mxCell id="izmXMdnwvWPawQ0ss3po-34" value="返回未找到的信息" style="whiteSpace=wrap;html=1;rounded=0;" parent="1" vertex="1"><mxGeometry x="530" y="600" width="120" height="20" as="geometry"/></mxCell><mxCell id="izmXMdnwvWPawQ0ss3po-38" value="End" style="whiteSpace=wrap;html=1;rounded=0;" parent="1" vertex="1"><mxGeometry x="795" y="552.5" width="25" height="15" as="geometry"/></mxCell><mxCell id="izmXMdnwvWPawQ0ss3po-40" value="3.管理员（更高级）增删改用户VIP信息" style="whiteSpace=wrap;html=1;" parent="1" vertex="1"><mxGeometry x="20" y="620" width="220" height="20" as="geometry"/></mxCell><mxCell id="izmXMdnwvWPawQ0ss3po-43" value="" style="edgeStyle=orthogonalEdgeStyle;rounded=0;orthogonalLoop=1;jettySize=auto;html=1;" parent="1" source="izmXMdnwvWPawQ0ss3po-41" target="izmXMdnwvWPawQ0ss3po-42" edge="1"><mxGeometry relative="1" as="geometry"/></mxCell><mxCell id="izmXMdnwvWPawQ0ss3po-65" style="edgeStyle=orthogonalEdgeStyle;rounded=0;orthogonalLoop=1;jettySize=auto;html=1;exitX=0.5;exitY=0;exitDx=0;exitDy=0;entryX=0.5;entryY=0;entryDx=0;entryDy=0;" parent="1" source="izmXMdnwvWPawQ0ss3po-41" target="izmXMdnwvWPawQ0ss3po-63" edge="1"><mxGeometry relative="1" as="geometry"/></mxCell><mxCell id="izmXMdnwvWPawQ0ss3po-66" value="直接在查看的列表中找到要修改或删除的用户" style="edgeLabel;html=1;align=center;verticalAlign=middle;resizable=0;points=[];" parent="izmXMdnwvWPawQ0ss3po-65" vertex="1" connectable="0"><mxGeometry x="0.0434" y="1" relative="1" as="geometry"><mxPoint as="offset"/></mxGeometry></mxCell><mxCell id="izmXMdnwvWPawQ0ss3po-41" value="Start" style="whiteSpace=wrap;html=1;" parent="1" vertex="1"><mxGeometry x="70" y="750" width="40" height="20" as="geometry"/></mxCell><mxCell id="izmXMdnwvWPawQ0ss3po-45" value="" style="edgeStyle=orthogonalEdgeStyle;rounded=0;orthogonalLoop=1;jettySize=auto;html=1;" parent="1" source="izmXMdnwvWPawQ0ss3po-42" target="izmXMdnwvWPawQ0ss3po-44" edge="1"><mxGeometry relative="1" as="geometry"/></mxCell><mxCell id="izmXMdnwvWPawQ0ss3po-42" value="前台输入用户名，提交表单" style="whiteSpace=wrap;html=1;" parent="1" vertex="1"><mxGeometry x="150" y="730" width="120" height="60" as="geometry"/></mxCell><mxCell id="izmXMdnwvWPawQ0ss3po-47" value="" style="edgeStyle=orthogonalEdgeStyle;rounded=0;orthogonalLoop=1;jettySize=auto;html=1;" parent="1" source="izmXMdnwvWPawQ0ss3po-44" target="izmXMdnwvWPawQ0ss3po-46" edge="1"><mxGeometry relative="1" as="geometry"/></mxCell><mxCell id="izmXMdnwvWPawQ0ss3po-48" value="未找到该用户" style="edgeLabel;html=1;align=center;verticalAlign=middle;resizable=0;points=[];" parent="izmXMdnwvWPawQ0ss3po-47" vertex="1" connectable="0"><mxGeometry x="-0.119" y="2" relative="1" as="geometry"><mxPoint as="offset"/></mxGeometry></mxCell><mxCell id="izmXMdnwvWPawQ0ss3po-54" value="" style="edgeStyle=orthogonalEdgeStyle;rounded=0;orthogonalLoop=1;jettySize=auto;html=1;" parent="1" source="izmXMdnwvWPawQ0ss3po-44" target="izmXMdnwvWPawQ0ss3po-53" edge="1"><mxGeometry relative="1" as="geometry"/></mxCell><mxCell id="izmXMdnwvWPawQ0ss3po-55" value="找到该用户" style="edgeLabel;html=1;align=center;verticalAlign=middle;resizable=0;points=[];" parent="izmXMdnwvWPawQ0ss3po-54" vertex="1" connectable="0"><mxGeometry x="-0.027" y="-2" relative="1" as="geometry"><mxPoint as="offset"/></mxGeometry></mxCell><mxCell id="izmXMdnwvWPawQ0ss3po-44" value="后台根据用户名在总的用户信息表查找用户" style="whiteSpace=wrap;html=1;" parent="1" vertex="1"><mxGeometry x="300" y="730" width="120" height="60" as="geometry"/></mxCell><mxCell id="izmXMdnwvWPawQ0ss3po-50" value="" style="edgeStyle=orthogonalEdgeStyle;rounded=0;orthogonalLoop=1;jettySize=auto;html=1;" parent="1" source="izmXMdnwvWPawQ0ss3po-46" target="izmXMdnwvWPawQ0ss3po-49" edge="1"><mxGeometry relative="1" as="geometry"/></mxCell><mxCell id="izmXMdnwvWPawQ0ss3po-46" value="发送未找到的信息到前台" style="whiteSpace=wrap;html=1;" parent="1" vertex="1"><mxGeometry x="300" y="850" width="120" height="40" as="geometry"/></mxCell><mxCell id="izmXMdnwvWPawQ0ss3po-52" value="" style="edgeStyle=orthogonalEdgeStyle;rounded=0;orthogonalLoop=1;jettySize=auto;html=1;" parent="1" source="izmXMdnwvWPawQ0ss3po-49" target="izmXMdnwvWPawQ0ss3po-51" edge="1"><mxGeometry relative="1" as="geometry"/></mxCell><mxCell id="izmXMdnwvWPawQ0ss3po-49" value="前台显示未找到" style="whiteSpace=wrap;html=1;" parent="1" vertex="1"><mxGeometry x="440" y="855" width="120" height="30" as="geometry"/></mxCell><mxCell id="izmXMdnwvWPawQ0ss3po-51" value="End" style="whiteSpace=wrap;html=1;" parent="1" vertex="1"><mxGeometry x="580" y="860" width="40" height="20" as="geometry"/></mxCell><mxCell id="izmXMdnwvWPawQ0ss3po-57" value="" style="edgeStyle=orthogonalEdgeStyle;rounded=0;orthogonalLoop=1;jettySize=auto;html=1;" parent="1" source="izmXMdnwvWPawQ0ss3po-53" target="izmXMdnwvWPawQ0ss3po-56" edge="1"><mxGeometry relative="1" as="geometry"/></mxCell><mxCell id="izmXMdnwvWPawQ0ss3po-60" value="" style="edgeStyle=orthogonalEdgeStyle;rounded=0;orthogonalLoop=1;jettySize=auto;html=1;" parent="1" source="izmXMdnwvWPawQ0ss3po-53" target="izmXMdnwvWPawQ0ss3po-56" edge="1"><mxGeometry relative="1" as="geometry"/></mxCell><mxCell id="izmXMdnwvWPawQ0ss3po-113" value="找到" style="edgeLabel;html=1;align=center;verticalAlign=middle;resizable=0;points=[];" parent="izmXMdnwvWPawQ0ss3po-60" vertex="1" connectable="0"><mxGeometry x="0.1104" y="1" relative="1" as="geometry"><mxPoint as="offset"/></mxGeometry></mxCell><mxCell id="izmXMdnwvWPawQ0ss3po-94" style="edgeStyle=orthogonalEdgeStyle;rounded=0;orthogonalLoop=1;jettySize=auto;html=1;exitX=1;exitY=0.75;exitDx=0;exitDy=0;entryX=0.5;entryY=0;entryDx=0;entryDy=0;" parent="1" source="izmXMdnwvWPawQ0ss3po-53" target="izmXMdnwvWPawQ0ss3po-95" edge="1"><mxGeometry relative="1" as="geometry"><mxPoint x="690" y="850" as="targetPoint"/></mxGeometry></mxCell><mxCell id="izmXMdnwvWPawQ0ss3po-96" value="未找到" style="edgeLabel;html=1;align=center;verticalAlign=middle;resizable=0;points=[];" parent="izmXMdnwvWPawQ0ss3po-94" vertex="1" connectable="0"><mxGeometry x="-0.1366" y="1" relative="1" as="geometry"><mxPoint as="offset"/></mxGeometry></mxCell><mxCell id="izmXMdnwvWPawQ0ss3po-53" value="保留用户ID，前往VIP信息表查找该用户" style="whiteSpace=wrap;html=1;" parent="1" vertex="1"><mxGeometry x="500" y="735" width="90" height="50" as="geometry"/></mxCell><mxCell id="izmXMdnwvWPawQ0ss3po-62" value="" style="edgeStyle=orthogonalEdgeStyle;rounded=0;orthogonalLoop=1;jettySize=auto;html=1;" parent="1" source="izmXMdnwvWPawQ0ss3po-56" target="izmXMdnwvWPawQ0ss3po-61" edge="1"><mxGeometry relative="1" as="geometry"/></mxCell><mxCell id="izmXMdnwvWPawQ0ss3po-56" value="后台发送该用户的信息" style="whiteSpace=wrap;html=1;" parent="1" vertex="1"><mxGeometry x="627.5" y="695" width="135" height="30" as="geometry"/></mxCell><mxCell id="izmXMdnwvWPawQ0ss3po-64" value="" style="edgeStyle=orthogonalEdgeStyle;rounded=0;orthogonalLoop=1;jettySize=auto;html=1;" parent="1" source="izmXMdnwvWPawQ0ss3po-61" target="izmXMdnwvWPawQ0ss3po-63" edge="1"><mxGeometry relative="1" as="geometry"/></mxCell><mxCell id="izmXMdnwvWPawQ0ss3po-61" value="前台以列表形式显示该用户的VIP信息" style="whiteSpace=wrap;html=1;" parent="1" vertex="1"><mxGeometry x="817" y="690" width="120" height="40" as="geometry"/></mxCell><mxCell id="izmXMdnwvWPawQ0ss3po-68" value="" style="edgeStyle=orthogonalEdgeStyle;rounded=0;orthogonalLoop=1;jettySize=auto;html=1;exitX=0.25;exitY=1;exitDx=0;exitDy=0;" parent="1" source="izmXMdnwvWPawQ0ss3po-63" target="izmXMdnwvWPawQ0ss3po-67" edge="1"><mxGeometry relative="1" as="geometry"><Array as="points"><mxPoint x="1000" y="720"/><mxPoint x="1000" y="800"/></Array></mxGeometry></mxCell><mxCell id="izmXMdnwvWPawQ0ss3po-69" value="选择修改" style="edgeLabel;html=1;align=center;verticalAlign=middle;resizable=0;points=[];" parent="izmXMdnwvWPawQ0ss3po-68" vertex="1" connectable="0"><mxGeometry x="-0.1422" relative="1" as="geometry"><mxPoint as="offset"/></mxGeometry></mxCell><mxCell id="izmXMdnwvWPawQ0ss3po-75" style="edgeStyle=orthogonalEdgeStyle;rounded=0;orthogonalLoop=1;jettySize=auto;html=1;exitX=0.75;exitY=1;exitDx=0;exitDy=0;entryX=0.5;entryY=0;entryDx=0;entryDy=0;" parent="1" source="izmXMdnwvWPawQ0ss3po-63" target="izmXMdnwvWPawQ0ss3po-76" edge="1"><mxGeometry relative="1" as="geometry"><mxPoint x="1100" y="810" as="targetPoint"/></mxGeometry></mxCell><mxCell id="izmXMdnwvWPawQ0ss3po-78" value="选择删除" style="edgeLabel;html=1;align=center;verticalAlign=middle;resizable=0;points=[];" parent="izmXMdnwvWPawQ0ss3po-75" vertex="1" connectable="0"><mxGeometry x="-0.1876" y="4" relative="1" as="geometry"><mxPoint as="offset"/></mxGeometry></mxCell><mxCell id="izmXMdnwvWPawQ0ss3po-63" value="提供按钮“修改”/“”删除“" style="whiteSpace=wrap;html=1;" parent="1" vertex="1"><mxGeometry x="970" y="700" width="130" height="20" as="geometry"/></mxCell><mxCell id="izmXMdnwvWPawQ0ss3po-71" value="" style="edgeStyle=orthogonalEdgeStyle;rounded=0;orthogonalLoop=1;jettySize=auto;html=1;" parent="1" source="izmXMdnwvWPawQ0ss3po-67" target="izmXMdnwvWPawQ0ss3po-70" edge="1"><mxGeometry relative="1" as="geometry"/></mxCell><mxCell id="izmXMdnwvWPawQ0ss3po-67" value="列表信息变为表单，可以进行修改（应该不是所有信息都允许修改）" style="whiteSpace=wrap;html=1;" parent="1" vertex="1"><mxGeometry x="817" y="770" width="120" height="60" as="geometry"/></mxCell><mxCell id="izmXMdnwvWPawQ0ss3po-80" style="edgeStyle=orthogonalEdgeStyle;rounded=0;orthogonalLoop=1;jettySize=auto;html=1;exitX=0.5;exitY=1;exitDx=0;exitDy=0;entryX=0.5;entryY=0;entryDx=0;entryDy=0;" parent="1" source="izmXMdnwvWPawQ0ss3po-70" target="izmXMdnwvWPawQ0ss3po-79" edge="1"><mxGeometry relative="1" as="geometry"/></mxCell><mxCell id="izmXMdnwvWPawQ0ss3po-70" value="点击提交按钮将前台新表单发送到后台" style="whiteSpace=wrap;html=1;" parent="1" vertex="1"><mxGeometry x="817" y="850" width="120" height="40" as="geometry"/></mxCell><mxCell id="izmXMdnwvWPawQ0ss3po-88" value="" style="edgeStyle=orthogonalEdgeStyle;rounded=0;orthogonalLoop=1;jettySize=auto;html=1;" parent="1" source="izmXMdnwvWPawQ0ss3po-72" target="izmXMdnwvWPawQ0ss3po-87" edge="1"><mxGeometry relative="1" as="geometry"/></mxCell><mxCell id="izmXMdnwvWPawQ0ss3po-72" value="根据VIPID找到VIP信息，进行修改" style="whiteSpace=wrap;html=1;" parent="1" vertex="1"><mxGeometry x="817" y="1000" width="120" height="40" as="geometry"/></mxCell><mxCell id="izmXMdnwvWPawQ0ss3po-85" value="" style="edgeStyle=orthogonalEdgeStyle;rounded=0;orthogonalLoop=1;jettySize=auto;html=1;" parent="1" source="izmXMdnwvWPawQ0ss3po-76" target="izmXMdnwvWPawQ0ss3po-84" edge="1"><mxGeometry relative="1" as="geometry"/></mxCell><mxCell id="izmXMdnwvWPawQ0ss3po-86" value="Y" style="edgeLabel;html=1;align=center;verticalAlign=middle;resizable=0;points=[];" parent="izmXMdnwvWPawQ0ss3po-85" vertex="1" connectable="0"><mxGeometry x="-0.029" relative="1" as="geometry"><mxPoint as="offset"/></mxGeometry></mxCell><mxCell id="izmXMdnwvWPawQ0ss3po-111" style="edgeStyle=orthogonalEdgeStyle;rounded=0;orthogonalLoop=1;jettySize=auto;html=1;exitX=0;exitY=0.5;exitDx=0;exitDy=0;" parent="1" source="izmXMdnwvWPawQ0ss3po-76" edge="1"><mxGeometry relative="1" as="geometry"><mxPoint x="990" y="940" as="targetPoint"/></mxGeometry></mxCell><mxCell id="izmXMdnwvWPawQ0ss3po-112" value="N" style="edgeLabel;html=1;align=center;verticalAlign=middle;resizable=0;points=[];" parent="izmXMdnwvWPawQ0ss3po-111" vertex="1" connectable="0"><mxGeometry x="0.0764" y="3" relative="1" as="geometry"><mxPoint as="offset"/></mxGeometry></mxCell><mxCell id="izmXMdnwvWPawQ0ss3po-76" value="提示信息，确定要进行删除吗" style="whiteSpace=wrap;html=1;" parent="1" vertex="1"><mxGeometry x="1010" y="808.48" width="120" height="40" as="geometry"/></mxCell><mxCell id="izmXMdnwvWPawQ0ss3po-81" style="edgeStyle=orthogonalEdgeStyle;rounded=0;orthogonalLoop=1;jettySize=auto;html=1;exitX=0.5;exitY=1;exitDx=0;exitDy=0;entryX=0.5;entryY=0;entryDx=0;entryDy=0;" parent="1" source="izmXMdnwvWPawQ0ss3po-79" target="izmXMdnwvWPawQ0ss3po-72" edge="1"><mxGeometry relative="1" as="geometry"/></mxCell><mxCell id="izmXMdnwvWPawQ0ss3po-83" value="Y" style="edgeLabel;html=1;align=center;verticalAlign=middle;resizable=0;points=[];" parent="izmXMdnwvWPawQ0ss3po-81" vertex="1" connectable="0"><mxGeometry x="0.0564" y="-2" relative="1" as="geometry"><mxPoint as="offset"/></mxGeometry></mxCell><mxCell id="izmXMdnwvWPawQ0ss3po-89" style="edgeStyle=orthogonalEdgeStyle;rounded=0;orthogonalLoop=1;jettySize=auto;html=1;exitX=1;exitY=0.5;exitDx=0;exitDy=0;entryX=0.5;entryY=0;entryDx=0;entryDy=0;" parent="1" source="izmXMdnwvWPawQ0ss3po-79" target="izmXMdnwvWPawQ0ss3po-87" edge="1"><mxGeometry relative="1" as="geometry"/></mxCell><mxCell id="izmXMdnwvWPawQ0ss3po-90" value="N" style="edgeLabel;html=1;align=center;verticalAlign=middle;resizable=0;points=[];" parent="izmXMdnwvWPawQ0ss3po-89" vertex="1" connectable="0"><mxGeometry x="-0.091" y="3" relative="1" as="geometry"><mxPoint as="offset"/></mxGeometry></mxCell><mxCell id="izmXMdnwvWPawQ0ss3po-79" value="提示信息”确定要进行修改吗“" style="whiteSpace=wrap;html=1;" parent="1" vertex="1"><mxGeometry x="817" y="920" width="120" height="40" as="geometry"/></mxCell><mxCell id="izmXMdnwvWPawQ0ss3po-84" value="发送消息包含VIPID到后台，删除相应用户" style="whiteSpace=wrap;html=1;" parent="1" vertex="1"><mxGeometry x="1010" y="883.48" width="120" height="35" as="geometry"/></mxCell><mxCell id="izmXMdnwvWPawQ0ss3po-87" value="End" style="whiteSpace=wrap;html=1;" parent="1" vertex="1"><mxGeometry x="1000" y="1010" width="33" height="20" as="geometry"/></mxCell><mxCell id="izmXMdnwvWPawQ0ss3po-97" style="edgeStyle=orthogonalEdgeStyle;rounded=0;orthogonalLoop=1;jettySize=auto;html=1;exitX=0.5;exitY=1;exitDx=0;exitDy=0;entryX=1;entryY=0.5;entryDx=0;entryDy=0;" parent="1" source="izmXMdnwvWPawQ0ss3po-95" target="izmXMdnwvWPawQ0ss3po-51" edge="1"><mxGeometry relative="1" as="geometry"><Array as="points"><mxPoint x="695" y="870"/></Array></mxGeometry></mxCell><mxCell id="izmXMdnwvWPawQ0ss3po-98" value="N" style="edgeLabel;html=1;align=center;verticalAlign=middle;resizable=0;points=[];" parent="izmXMdnwvWPawQ0ss3po-97" vertex="1" connectable="0"><mxGeometry x="0.0028" y="-1" relative="1" as="geometry"><mxPoint as="offset"/></mxGeometry></mxCell><mxCell id="izmXMdnwvWPawQ0ss3po-100" value="" style="edgeStyle=orthogonalEdgeStyle;rounded=0;orthogonalLoop=1;jettySize=auto;html=1;" parent="1" source="izmXMdnwvWPawQ0ss3po-95" target="izmXMdnwvWPawQ0ss3po-99" edge="1"><mxGeometry relative="1" as="geometry"/></mxCell><mxCell id="izmXMdnwvWPawQ0ss3po-101" value="Y" style="edgeLabel;html=1;align=center;verticalAlign=middle;resizable=0;points=[];" parent="izmXMdnwvWPawQ0ss3po-100" vertex="1" connectable="0"><mxGeometry x="-0.1255" y="1" relative="1" as="geometry"><mxPoint as="offset"/></mxGeometry></mxCell><mxCell id="izmXMdnwvWPawQ0ss3po-95" value="提示，该用户尚未充值VIP，需要为该用户增添VIP吗" style="whiteSpace=wrap;html=1;" parent="1" vertex="1"><mxGeometry x="650" y="795" width="90" height="60" as="geometry"/></mxCell><mxCell id="izmXMdnwvWPawQ0ss3po-103" value="" style="edgeStyle=orthogonalEdgeStyle;rounded=0;orthogonalLoop=1;jettySize=auto;html=1;" parent="1" source="izmXMdnwvWPawQ0ss3po-99" target="izmXMdnwvWPawQ0ss3po-102" edge="1"><mxGeometry relative="1" as="geometry"/></mxCell><mxCell id="izmXMdnwvWPawQ0ss3po-99" value="输入开始时间，持续时间，其他信息系统自动给出" style="whiteSpace=wrap;html=1;" parent="1" vertex="1"><mxGeometry x="635" y="910" width="120" height="50" as="geometry"/></mxCell><mxCell id="izmXMdnwvWPawQ0ss3po-105" value="" style="edgeStyle=orthogonalEdgeStyle;rounded=0;orthogonalLoop=1;jettySize=auto;html=1;" parent="1" source="izmXMdnwvWPawQ0ss3po-102" target="izmXMdnwvWPawQ0ss3po-104" edge="1"><mxGeometry relative="1" as="geometry"/></mxCell><mxCell id="izmXMdnwvWPawQ0ss3po-106" value="Y" style="edgeLabel;html=1;align=center;verticalAlign=middle;resizable=0;points=[];" parent="izmXMdnwvWPawQ0ss3po-105" vertex="1" connectable="0"><mxGeometry x="-0.1595" y="-1" relative="1" as="geometry"><mxPoint as="offset"/></mxGeometry></mxCell><mxCell id="izmXMdnwvWPawQ0ss3po-107" style="edgeStyle=orthogonalEdgeStyle;rounded=0;orthogonalLoop=1;jettySize=auto;html=1;exitX=0;exitY=0.5;exitDx=0;exitDy=0;entryX=0.5;entryY=1;entryDx=0;entryDy=0;" parent="1" source="izmXMdnwvWPawQ0ss3po-102" target="izmXMdnwvWPawQ0ss3po-51" edge="1"><mxGeometry relative="1" as="geometry"/></mxCell><mxCell id="izmXMdnwvWPawQ0ss3po-108" value="N" style="edgeLabel;html=1;align=center;verticalAlign=middle;resizable=0;points=[];" parent="izmXMdnwvWPawQ0ss3po-107" vertex="1" connectable="0"><mxGeometry x="-0.0105" y="-1" relative="1" as="geometry"><mxPoint as="offset"/></mxGeometry></mxCell><mxCell id="izmXMdnwvWPawQ0ss3po-102" value="提示，确定要添加吗" style="whiteSpace=wrap;html=1;" parent="1" vertex="1"><mxGeometry x="635" y="980" width="120" height="30" as="geometry"/></mxCell><mxCell id="izmXMdnwvWPawQ0ss3po-109" style="edgeStyle=orthogonalEdgeStyle;rounded=0;orthogonalLoop=1;jettySize=auto;html=1;exitX=0;exitY=0.5;exitDx=0;exitDy=0;" parent="1" source="izmXMdnwvWPawQ0ss3po-104" edge="1"><mxGeometry relative="1" as="geometry"><mxPoint x="600" y="990" as="targetPoint"/></mxGeometry></mxCell><mxCell id="izmXMdnwvWPawQ0ss3po-104" value="发送消息到后台，后台根据要求向VIP信息表中添加新的VIP用户" style="whiteSpace=wrap;html=1;" parent="1" vertex="1"><mxGeometry x="635" y="1040" width="120" height="50" as="geometry"/></mxCell><mxCell id="izmXMdnwvWPawQ0ss3po-114" value="4.用户充值VIP" style="rounded=0;whiteSpace=wrap;html=1;" parent="1" vertex="1"><mxGeometry x="22.5" y="1100" width="100" height="30" as="geometry"/></mxCell><mxCell id="izmXMdnwvWPawQ0ss3po-117" value="" style="edgeStyle=orthogonalEdgeStyle;rounded=0;orthogonalLoop=1;jettySize=auto;html=1;" parent="1" source="izmXMdnwvWPawQ0ss3po-115" target="izmXMdnwvWPawQ0ss3po-116" edge="1"><mxGeometry relative="1" as="geometry"/></mxCell><mxCell id="izmXMdnwvWPawQ0ss3po-115" value="Start" style="rounded=0;whiteSpace=wrap;html=1;" parent="1" vertex="1"><mxGeometry x="72.5" y="1170" width="40" height="20" as="geometry"/></mxCell><mxCell id="izmXMdnwvWPawQ0ss3po-119" value="" style="edgeStyle=orthogonalEdgeStyle;rounded=0;orthogonalLoop=1;jettySize=auto;html=1;" parent="1" source="izmXMdnwvWPawQ0ss3po-116" target="izmXMdnwvWPawQ0ss3po-118" edge="1"><mxGeometry relative="1" as="geometry"/></mxCell><mxCell id="izmXMdnwvWPawQ0ss3po-116" value="点击充值/续费按钮" style="whiteSpace=wrap;html=1;rounded=0;" parent="1" vertex="1"><mxGeometry x="155" y="1165" width="102.5" height="30" as="geometry"/></mxCell><mxCell id="izmXMdnwvWPawQ0ss3po-121" value="" style="edgeStyle=orthogonalEdgeStyle;rounded=0;orthogonalLoop=1;jettySize=auto;html=1;" parent="1" source="izmXMdnwvWPawQ0ss3po-118" target="izmXMdnwvWPawQ0ss3po-120" edge="1"><mxGeometry relative="1" as="geometry"/></mxCell><mxCell id="izmXMdnwvWPawQ0ss3po-118" value="点击充值时长" style="whiteSpace=wrap;html=1;rounded=0;" parent="1" vertex="1"><mxGeometry x="277.5" y="1170" width="91.25" height="20" as="geometry"/></mxCell><mxCell id="izmXMdnwvWPawQ0ss3po-123" value="" style="edgeStyle=orthogonalEdgeStyle;rounded=0;orthogonalLoop=1;jettySize=auto;html=1;" parent="1" source="izmXMdnwvWPawQ0ss3po-120" target="izmXMdnwvWPawQ0ss3po-122" edge="1"><mxGeometry relative="1" as="geometry"/></mxCell><mxCell id="izmXMdnwvWPawQ0ss3po-120" value="点击确定" style="whiteSpace=wrap;html=1;rounded=0;" parent="1" vertex="1"><mxGeometry x="390.41999999999996" y="1165" width="58.75" height="30" as="geometry"/></mxCell><mxCell id="izmXMdnwvWPawQ0ss3po-125" value="" style="edgeStyle=orthogonalEdgeStyle;rounded=0;orthogonalLoop=1;jettySize=auto;html=1;" parent="1" source="izmXMdnwvWPawQ0ss3po-122" target="izmXMdnwvWPawQ0ss3po-124" edge="1"><mxGeometry relative="1" as="geometry"/></mxCell><mxCell id="izmXMdnwvWPawQ0ss3po-122" value="接入充值接口" style="whiteSpace=wrap;html=1;rounded=0;" parent="1" vertex="1"><mxGeometry x="469.17" y="1170" width="88.75" height="20" as="geometry"/></mxCell><mxCell id="izmXMdnwvWPawQ0ss3po-129" style="edgeStyle=orthogonalEdgeStyle;rounded=0;orthogonalLoop=1;jettySize=auto;html=1;exitX=1;exitY=0.5;exitDx=0;exitDy=0;entryX=0;entryY=0.5;entryDx=0;entryDy=0;" parent="1" source="izmXMdnwvWPawQ0ss3po-124" target="izmXMdnwvWPawQ0ss3po-128" edge="1"><mxGeometry relative="1" as="geometry"/></mxCell><mxCell id="izmXMdnwvWPawQ0ss3po-124" value="用户付款，向后台发送信息" style="whiteSpace=wrap;html=1;rounded=0;" parent="1" vertex="1"><mxGeometry x="579.17" y="1160" width="120" height="40" as="geometry"/></mxCell><mxCell id="izmXMdnwvWPawQ0ss3po-137" value="" style="edgeStyle=orthogonalEdgeStyle;rounded=0;orthogonalLoop=1;jettySize=auto;html=1;" parent="1" source="izmXMdnwvWPawQ0ss3po-126" target="izmXMdnwvWPawQ0ss3po-135" edge="1"><mxGeometry relative="1" as="geometry"/></mxCell><mxCell id="izmXMdnwvWPawQ0ss3po-126" value="后台根据前台信息（用户ID，充值时长）创建新的VIP信息&amp;nbsp;" style="whiteSpace=wrap;html=1;rounded=0;" parent="1" vertex="1"><mxGeometry x="907.12" y="1150" width="120" height="70" as="geometry"/></mxCell><mxCell id="izmXMdnwvWPawQ0ss3po-132" value="" style="edgeStyle=orthogonalEdgeStyle;rounded=0;orthogonalLoop=1;jettySize=auto;html=1;" parent="1" source="izmXMdnwvWPawQ0ss3po-128" target="izmXMdnwvWPawQ0ss3po-131" edge="1"><mxGeometry relative="1" as="geometry"/></mxCell><mxCell id="izmXMdnwvWPawQ0ss3po-134" value="未查到" style="edgeLabel;html=1;align=center;verticalAlign=middle;resizable=0;points=[];" parent="izmXMdnwvWPawQ0ss3po-132" vertex="1" connectable="0"><mxGeometry x="-0.1583" relative="1" as="geometry"><mxPoint as="offset"/></mxGeometry></mxCell><mxCell id="izmXMdnwvWPawQ0ss3po-128" value="在VIP信息表中查询用户ID" style="whiteSpace=wrap;html=1;" parent="1" vertex="1"><mxGeometry x="722.17" y="1160" width="120" height="40" as="geometry"/></mxCell><mxCell id="izmXMdnwvWPawQ0ss3po-130" style="edgeStyle=orthogonalEdgeStyle;rounded=0;orthogonalLoop=1;jettySize=auto;html=1;exitX=1;exitY=0.5;exitDx=0;exitDy=0;entryX=0.016;entryY=0.385;entryDx=0;entryDy=0;entryPerimeter=0;" parent="1" source="izmXMdnwvWPawQ0ss3po-128" target="izmXMdnwvWPawQ0ss3po-126" edge="1"><mxGeometry relative="1" as="geometry"/></mxCell><mxCell id="izmXMdnwvWPawQ0ss3po-133" value="查到" style="edgeLabel;html=1;align=center;verticalAlign=middle;resizable=0;points=[];" parent="izmXMdnwvWPawQ0ss3po-130" vertex="1" connectable="0"><mxGeometry x="-0.039" y="-1" relative="1" as="geometry"><mxPoint x="-1" as="offset"/></mxGeometry></mxCell><mxCell id="izmXMdnwvWPawQ0ss3po-136" value="" style="edgeStyle=orthogonalEdgeStyle;rounded=0;orthogonalLoop=1;jettySize=auto;html=1;" parent="1" source="izmXMdnwvWPawQ0ss3po-131" target="izmXMdnwvWPawQ0ss3po-135" edge="1"><mxGeometry relative="1" as="geometry"/></mxCell><mxCell id="izmXMdnwvWPawQ0ss3po-131" value="&lt;div style=&quot;forced-color-adjust: none; color: rgb(0, 0, 0); font-family: Helvetica; font-size: 12px; font-style: normal; font-variant-ligatures: normal; font-variant-caps: normal; font-weight: 400; letter-spacing: normal; orphans: 2; text-align: center; text-indent: 0px; text-transform: none; widows: 2; word-spacing: 0px; -webkit-text-stroke-width: 0px; white-space: normal; background-color: rgb(251, 251, 251); text-decoration-thickness: initial; text-decoration-style: initial; text-decoration-color: initial;&quot;&gt;在旧有信息上更新后台VIP信息，主要是更新Status，结束时间&lt;/div&gt;" style="whiteSpace=wrap;html=1;" parent="1" vertex="1"><mxGeometry x="722.17" y="1270" width="120" height="50" as="geometry"/></mxCell><mxCell id="izmXMdnwvWPawQ0ss3po-135" value="End" style="whiteSpace=wrap;html=1;" parent="1" vertex="1"><mxGeometry x="947.1200000000001" y="1285" width="40" height="20" as="geometry"/></mxCell><mxCell id="izmXMdnwvWPawQ0ss3po-138" value="5.用户界面显示VIP特效" style="rounded=0;whiteSpace=wrap;html=1;" parent="1" vertex="1"><mxGeometry x="20" y="1320" width="140" height="30" as="geometry"/></mxCell><mxCell id="izmXMdnwvWPawQ0ss3po-143" value="" style="edgeStyle=orthogonalEdgeStyle;rounded=0;orthogonalLoop=1;jettySize=auto;html=1;" parent="1" source="izmXMdnwvWPawQ0ss3po-141" target="izmXMdnwvWPawQ0ss3po-142" edge="1"><mxGeometry relative="1" as="geometry"/></mxCell><mxCell id="izmXMdnwvWPawQ0ss3po-141" value="Start" style="whiteSpace=wrap;html=1;" parent="1" vertex="1"><mxGeometry x="72.5" y="1430" width="50" height="20" as="geometry"/></mxCell><mxCell id="izmXMdnwvWPawQ0ss3po-145" value="" style="edgeStyle=orthogonalEdgeStyle;rounded=0;orthogonalLoop=1;jettySize=auto;html=1;" parent="1" source="izmXMdnwvWPawQ0ss3po-142" target="izmXMdnwvWPawQ0ss3po-144" edge="1"><mxGeometry relative="1" as="geometry"/></mxCell><mxCell id="izmXMdnwvWPawQ0ss3po-142" value="显示用户信息时查询用户的VIP信息" style="whiteSpace=wrap;html=1;" parent="1" vertex="1"><mxGeometry x="166.5" y="1420" width="120" height="40" as="geometry"/></mxCell><mxCell id="izmXMdnwvWPawQ0ss3po-147" value="" style="edgeStyle=orthogonalEdgeStyle;rounded=0;orthogonalLoop=1;jettySize=auto;html=1;" parent="1" source="izmXMdnwvWPawQ0ss3po-144" target="izmXMdnwvWPawQ0ss3po-146" edge="1"><mxGeometry relative="1" as="geometry"/></mxCell><mxCell id="izmXMdnwvWPawQ0ss3po-144" value="可以加一个类似推特的小蓝标之类的或者炫酷的红色名字" style="whiteSpace=wrap;html=1;" parent="1" vertex="1"><mxGeometry x="322.5" y="1410" width="120" height="60" as="geometry"/></mxCell><mxCell id="izmXMdnwvWPawQ0ss3po-146" value="End" style="whiteSpace=wrap;html=1;" parent="1" vertex="1"><mxGeometry x="474.17" y="1430" width="40" height="20" as="geometry"/></mxCell><mxCell id="izmXMdnwvWPawQ0ss3po-148" value="" style="endArrow=none;html=1;rounded=0;" parent="1" edge="1"><mxGeometry relative="1" as="geometry"><mxPoint y="1480" as="sourcePoint"/><mxPoint x="830" y="1480" as="targetPoint"/></mxGeometry></mxCell><mxCell id="izmXMdnwvWPawQ0ss3po-149" value="1" style="resizable=0;html=1;whiteSpace=wrap;align=right;verticalAlign=bottom;" parent="izmXMdnwvWPawQ0ss3po-148" connectable="0" vertex="1"><mxGeometry x="1" relative="1" as="geometry"><mxPoint x="-114" as="offset"/></mxGeometry></mxCell><mxCell id="izmXMdnwvWPawQ0ss3po-150" value="&lt;font style=&quot;font-size: 18px;&quot;&gt;前台需要的东西&lt;/font&gt;" style="whiteSpace=wrap;html=1;" parent="1" vertex="1"><mxGeometry x="35" y="1510" width="140" height="30" as="geometry"/></mxCell><mxCell id="izmXMdnwvWPawQ0ss3po-151" value="VIPinformation.html&lt;div&gt;显示所有VIP信息列表&lt;/div&gt;" style="whiteSpace=wrap;html=1;" parent="1" vertex="1"><mxGeometry x="80" y="1600" width="130" height="40" as="geometry"/></mxCell><mxCell id="izmXMdnwvWPawQ0ss3po-152" value="VIP" style="rounded=0;whiteSpace=wrap;html=1;" parent="1" vertex="1"><mxGeometry x="297.5" y="1660" width="115" height="30" as="geometry"/></mxCell><mxCell id="izmXMdnwvWPawQ0ss3po-153" value="VIP列表" style="rounded=0;whiteSpace=wrap;html=1;" parent="1" vertex="1"><mxGeometry x="332.5" y="1690" width="75" height="30" as="geometry"/></mxCell><mxCell id="izmXMdnwvWPawQ0ss3po-155" value="VIP用户" style="rounded=0;whiteSpace=wrap;html=1;" parent="1" vertex="1"><mxGeometry x="460" y="1645" width="335" height="30" as="geometry"/></mxCell><mxCell id="izmXMdnwvWPawQ0ss3po-156" value="VIP用户" style="rounded=0;whiteSpace=wrap;html=1;" parent="1" vertex="1"><mxGeometry x="460" y="1675" width="335" height="30" as="geometry"/></mxCell><mxCell id="izmXMdnwvWPawQ0ss3po-157" value="VIP用户" style="rounded=0;whiteSpace=wrap;html=1;" parent="1" vertex="1"><mxGeometry x="460" y="1705" width="335" height="30" as="geometry"/></mxCell><mxCell id="izmXMdnwvWPawQ0ss3po-158" value="VIP用户" style="rounded=0;whiteSpace=wrap;html=1;" parent="1" vertex="1"><mxGeometry x="460" y="1735" width="335" height="30" as="geometry"/></mxCell><mxCell id="izmXMdnwvWPawQ0ss3po-159" value="搜索框..." style="rounded=0;whiteSpace=wrap;html=1;" parent="1" vertex="1"><mxGeometry x="460" y="1610" width="90" height="30" as="geometry"/></mxCell><mxCell id="izmXMdnwvWPawQ0ss3po-160" value="搜索按钮" style="rounded=0;whiteSpace=wrap;html=1;" parent="1" vertex="1"><mxGeometry x="555" y="1610" width="60" height="30" as="geometry"/></mxCell><mxCell id="izmXMdnwvWPawQ0ss3po-162" value="" style="endArrow=none;html=1;rounded=0;" parent="1" edge="1"><mxGeometry relative="1" as="geometry"><mxPoint x="430" y="1530" as="sourcePoint"/><mxPoint x="430" y="1900" as="targetPoint"/></mxGeometry></mxCell><mxCell id="izmXMdnwvWPawQ0ss3po-163" value="1" style="resizable=0;html=1;whiteSpace=wrap;align=right;verticalAlign=bottom;" parent="izmXMdnwvWPawQ0ss3po-162" connectable="0" vertex="1"><mxGeometry x="1" relative="1" as="geometry"><mxPoint x="-114" as="offset"/></mxGeometry></mxCell><mxCell id="izmXMdnwvWPawQ0ss3po-164" value="" style="whiteSpace=wrap;html=1;" parent="1" vertex="1"><mxGeometry x="85" y="1930" width="120" height="60" as="geometry"/></mxCell><mxCell id="izmXMdnwvWPawQ0ss3po-165" value="VIP用户特效" style="rounded=1;whiteSpace=wrap;html=1;strokeWidth=2;fillWeight=4;hachureGap=8;hachureAngle=45;fillColor=#1ba1e2;sketch=1;" parent="1" vertex="1"><mxGeometry x="257.5" y="1930" width="120" height="60" as="geometry"/></mxCell></root></mxGraphModel></diagram></mxfile>